<svg xmlns="http://www.w3.org/2000/svg" width="1200" height="430" viewBox="0 0 1200 430" role="img" aria-labelledby="title desc">
<defs>
<linearGradient id="bg" x1="0%" y1="0%" x2="100%" y2="100%">
<stop offset="0%" stop-color="#F8FAFC" />
<stop offset="100%" stop-color="#EDF2F7" />
</linearGradient>
<filter id="shadow" x="-20%" y="-20%" width="140%" height="140%">
<feDropShadow dx="0" dy="3" stdDeviation="6" flood-color="#0F172A" flood-opacity="0.10" />
</filter>
</defs>
<rect width="100%" height="100%" fill="url(#bg)" rx="20" />
<title id="title">Tracker Benchmark Snapshot</title>
<desc id="desc">model=best.pt · device=cpu · frames=150</desc>
<text x="34" y="46" font-size="28" font-family="Arial, sans-serif" font-weight="700" fill="#0F172A">Tracker Benchmark Snapshot</text>
<text x="34" y="74" font-size="14" font-family="Arial, sans-serif" fill="#475569">model=best.pt · device=cpu · frames=150</text>
<rect x="950" y="32" width="12" height="12" rx="3" fill="#2B6CB0" />
<text x="970" y="42" font-size="13" font-family="Arial, sans-serif" fill="#1E293B">bytetrack</text>
<rect x="950" y="54" width="12" height="12" rx="3" fill="#2F855A" />
<text x="970" y="64" font-size="13" font-family="Arial, sans-serif" fill="#1E293B">bytetrack-occlusion</text>
<rect x="950" y="76" width="12" height="12" rx="3" fill="#D69E2E" />
<text x="970" y="86" font-size="13" font-family="Arial, sans-serif" fill="#1E293B">botsort</text>
<rect x="34" y="112" width="365" height="270" rx="18" fill="#FFFFFF" filter="url(#shadow)" />
<text x="52" y="140" font-size="16" font-family="Arial, sans-serif" font-weight="700" fill="#0F172A">Avg FPS</text>
<text x="52" y="187" font-size="13" font-family="Arial, sans-serif" fill="#334155">bytetrack</text>
<rect x="182" y="170" width="197" height="24" rx="12" fill="#E2E8F0" />
<rect x="182" y="170" width="195" height="24" rx="12" fill="#2B6CB0" />
<text x="379" y="187" font-size="12" font-family="Arial, sans-serif" text-anchor="end" fill="#0F172A">61.8</text>
<text x="52" y="245" font-size="13" font-family="Arial, sans-serif" fill="#334155">bytetrack-occlusion</text>
<rect x="182" y="228" width="197" height="24" rx="12" fill="#E2E8F0" />
<rect x="182" y="228" width="197" height="24" rx="12" fill="#2F855A" />
<text x="379" y="245" font-size="12" font-family="Arial, sans-serif" text-anchor="end" fill="#0F172A">62.3</text>
<text x="52" y="303" font-size="13" font-family="Arial, sans-serif" fill="#334155">botsort</text>
<rect x="182" y="286" width="197" height="24" rx="12" fill="#E2E8F0" />
<rect x="182" y="286" width="165" height="24" rx="12" fill="#D69E2E" />
<text x="379" y="303" font-size="12" font-family="Arial, sans-serif" text-anchor="end" fill="#0F172A">52.3</text>
<text x="182" y="356" font-size="11" font-family="Arial, sans-serif" fill="#64748B" text-anchor="start">0</text>
<text x="379" y="356" font-size="11" font-family="Arial, sans-serif" fill="#64748B" text-anchor="end">62.3</text>
<rect x="417" y="112" width="365" height="270" rx="18" fill="#FFFFFF" filter="url(#shadow)" />
<text x="435" y="140" font-size="16" font-family="Arial, sans-serif" font-weight="700" fill="#0F172A">Avg Track Duration (frames)</text>
<text x="435" y="187" font-size="13" font-family="Arial, sans-serif" fill="#334155">bytetrack</text>
<rect x="565" y="170" width="197" height="24" rx="12" fill="#E2E8F0" />
<rect x="565" y="170" width="197" height="24" rx="12" fill="#2B6CB0" />
<text x="762" y="187" font-size="12" font-family="Arial, sans-serif" text-anchor="end" fill="#0F172A">24.5</text>
<text x="435" y="245" font-size="13" font-family="Arial, sans-serif" fill="#334155">bytetrack-occlusion</text>
<rect x="565" y="228" width="197" height="24" rx="12" fill="#E2E8F0" />
<rect x="565" y="228" width="182" height="24" rx="12" fill="#2F855A" />
<text x="762" y="245" font-size="12" font-family="Arial, sans-serif" text-anchor="end" fill="#0F172A">22.7</text>
<text x="435" y="303" font-size="13" font-family="Arial, sans-serif" fill="#334155">botsort</text>
<rect x="565" y="286" width="197" height="24" rx="12" fill="#E2E8F0" />
<rect x="565" y="286" width="180" height="24" rx="12" fill="#D69E2E" />
<text x="762" y="303" font-size="12" font-family="Arial, sans-serif" text-anchor="end" fill="#0F172A">22.5</text>
<text x="565" y="356" font-size="11" font-family="Arial, sans-serif" fill="#64748B" text-anchor="start">0</text>
<text x="762" y="356" font-size="11" font-family="Arial, sans-serif" fill="#64748B" text-anchor="end">24.5</text>
<rect x="800" y="112" width="365" height="270" rx="18" fill="#FFFFFF" filter="url(#shadow)" />
<text x="818" y="140" font-size="16" font-family="Arial, sans-serif" font-weight="700" fill="#0F172A">Short Tracks &lt;5 Frames (lower better)</text>
<text x="818" y="187" font-size="13" font-family="Arial, sans-serif" fill="#334155">bytetrack</text>
<rect x="948" y="170" width="197" height="24" rx="12" fill="#E2E8F0" />
<rect x="948" y="170" width="98" height="24" rx="12" fill="#2B6CB0" />
<text x="1145" y="187" font-size="12" font-family="Arial, sans-serif" text-anchor="end" fill="#0F172A">4</text>
<text x="818" y="245" font-size="13" font-family="Arial, sans-serif" fill="#334155">bytetrack-occlusion</text>
<rect x="948" y="228" width="197" height="24" rx="12" fill="#E2E8F0" />
<rect x="948" y="228" width="197" height="24" rx="12" fill="#2F855A" />
<text x="1145" y="245" font-size="12" font-family="Arial, sans-serif" text-anchor="end" fill="#0F172A">8</text>
<text x="818" y="303" font-size="13" font-family="Arial, sans-serif" fill="#334155">botsort</text>
<rect x="948" y="286" width="197" height="24" rx="12" fill="#E2E8F0" />
<rect x="948" y="286" width="123" height="24" rx="12" fill="#D69E2E" />
<text x="1145" y="303" font-size="12" font-family="Arial, sans-serif" text-anchor="end" fill="#0F172A">5</text>
<text x="948" y="356" font-size="11" font-family="Arial, sans-serif" fill="#64748B" text-anchor="start">0</text>
<text x="1145" y="356" font-size="11" font-family="Arial, sans-serif" fill="#64748B" text-anchor="end">8</text>
</svg>